Coordinates
version=1
nRows=6
nColumns=63
inDegrees=yes

Units are S.I. units (second, meters, Newtons, ...)
If the header above contains a line with 'inDegrees', this indicates whether rotational values are in degrees (yes) or radians (no).

endheader
time	pelvis_tilt	pelvis_list	pelvis_rotation	pelvis_tx	pelvis_ty	pelvis_tz	hip_flexion_r	hip_adduction_r	hip_rotation_r	knee_angle_r	knee_angle_r_beta	ankle_angle_r	subtalar_angle_r	mtp_angle_r	hip_flexion_l	hip_adduction_l	hip_rotation_l	knee_angle_l	knee_angle_l_beta	ankle_angle_l	subtalar_angle_l	mtp_angle_l	L5_S1_Flex_Ext	L5_S1_Lat_Bending	L5_S1_axial_rotation	L4_L5_Flex_Ext	L4_L5_Lat_Bending	L4_L5_axial_rotation	L3_L4_Flex_Ext	L3_L4_Lat_Bending	L3_L4_axial_rotation	L2_L3_Flex_Ext	L2_L3_Lat_Bending	L2_L3_axial_rotation	L1_L2_Flex_Ext	L1_L2_Lat_Bending	L1_L2_axial_rotation	L1_T12_Flex_Ext	L1_T12_Lat_Bending	L1_T12_axial_rotation	Abs_r3	Abs_r2	Abs_r1	Abs_t1	Abs_t2	neck_flexion	neck_bending	neck_rotation	arm_flex_r	arm_add_r	arm_rot_r	elbow_flex_r	pro_sup_r	wrist_flex_r	wrist_dev_r	arm_flex_l	arm_add_l	arm_rot_l	elbow_flex_l	pro_sup_l	wrist_flex_l	wrist_dev_l
4.150000	1.133431	1.452147	95.201579	0.080111	0.868046	0.622406	3.402777	4.115933	2.732302	9.496261	0.165741	28.114362	-2.834754	0.000000	-0.395184	-1.556083	1.074711	2.220321	0.038752	29.751385	-10.025591	0.000000	0.147175	0.573418	0.212870	0.273318	0.762646	0.226174	0.241793	1.394209	0.226174	0.168206	1.394209	0.186261	0.136666	1.169314	0.172957	0.084096	0.888225	0.159652	1.051254	6.486619	1.183918	0.000000	0.000000	18.884128	-0.536048	11.918513	29.284075	-5.296421	119.802289	31.300704	35.990384	-1.022805	-6.000430	24.162061	3.059122	178.758213	0.865420	5.409584	-20.837058	-23.075770
4.166667	1.561730	1.408005	95.065669	0.079466	0.867842	0.625018	3.917123	4.398676	1.394519	10.143567	0.177039	28.347692	-1.079480	0.000000	-0.023483	-1.912806	0.669388	2.549590	0.044499	29.956391	-9.824413	0.000000	0.153212	0.646560	0.319901	0.284530	0.859924	0.339895	0.251712	1.572045	0.339895	0.175106	1.572045	0.279914	0.142273	1.318465	0.259920	0.087545	1.001521	0.239926	1.094379	7.314013	1.779196	0.000000	0.000000	18.317809	-1.067509	11.881118	29.221158	-7.411214	108.523480	36.624051	44.394988	0.356857	-4.120821	25.181387	4.089581	182.872772	0.721380	7.617427	-26.234816	-23.909398
4.183333	1.972845	1.398079	95.146024	0.078537	0.867651	0.627261	4.301482	4.677597	0.080085	10.661021	0.186070	28.497049	0.390747	0.000000	0.340323	-2.276049	0.229785	2.945949	0.051417	30.257381	-9.330934	0.000000	0.160038	0.716140	0.394094	0.297206	0.952466	0.418725	0.262926	1.741222	0.418725	0.182907	1.741222	0.344832	0.148611	1.460352	0.320201	0.091445	1.109300	0.295571	1.143133	8.101114	2.191833	0.000000	0.000000	17.777851	-1.545947	11.860725	29.045516	-9.630207	98.086086	41.691427	51.326156	1.558813	-1.821284	26.078176	4.988207	187.442150	0.563761	9.987029	-32.396293	-24.441248
4.200000	2.353938	1.415902	95.441079	0.077374	0.867491	0.629121	4.562123	4.943893	-1.178029	11.032301	0.192550	28.563047	1.535232	0.000000	0.689299	-2.626592	-0.117224	3.372609	0.058863	30.606863	-8.697149	0.000000	0.168476	0.778012	0.435424	0.312877	1.034756	0.462638	0.276790	1.891658	0.462638	0.192552	1.891658	0.380996	0.156447	1.586522	0.353782	0.096267	1.205141	0.326568	1.203409	8.801027	2.421697	0.000000	0.000000	17.283195	-1.931321	11.763661	28.775298	-11.851258	88.852468	46.322775	57.104748	2.629544	0.797744	26.845086	5.755004	192.203896	0.400349	12.576734	-39.108017	-24.605044
4.216667	2.695339	1.456293	95.949861	0.076075	0.867365	0.630646	4.710424	5.193983	-2.341378	11.244776	0.196258	28.551236	2.307192	0.000000	1.039233	-2.966374	-0.487828	3.840247	0.067025	31.009825	-7.775184	0.000000	0.178270	0.829374	0.438647	0.331066	1.103067	0.466062	0.292880	2.016539	0.466062	0.203745	2.016539	0.383816	0.165542	1.691259	0.356401	0.101864	1.284700	0.328985	1.273366	9.382041	2.439622	0.000000	0.000000	16.855173	-2.212177	11.586833	28.493830	-13.943133	81.366758	50.372227	61.017649	3.335338	3.630894	27.478946	6.379997	197.000238	0.248340	15.067082	-46.052534	-24.461892
4.233333	2.981355	1.518329	96.653811	0.074718	0.867268	0.631870	4.757342	5.414324	-3.375242	11.308440	0.197370	28.481780	2.690865	0.000000	1.389517	-3.277595	-0.841531	4.343409	0.075807	31.448370	-6.636710	0.000000	0.189133	0.867446	0.402509	0.351239	1.153703	0.427666	0.310727	2.109107	0.427666	0.216160	2.109107	0.352195	0.175629	1.768895	0.327038	0.108071	1.343673	0.301882	1.350959	9.812718	2.238633	0.000000	0.000000	16.483988	-2.362631	11.326575	28.239716	-15.772337	75.979001	53.656332	62.932711	3.642392	6.491730	27.974330	6.862070	201.564799	0.125641	17.316295	-52.894418	-24.080676
